<?xml version="1.0"?>
<svg xmlns="http://www.w3.org/2000/svg" xmlns:xlink="http://www.w3.org/1999/xlink" xmlns:svgjs="http://svgjs.com/svgjs" version="1.1" width="512" height="512" x="0" y="0" viewBox="0 0 512 512" style="enable-background:new 0 0 512 512" xml:space="preserve" class=""><g>
<g xmlns="http://www.w3.org/2000/svg">
	<g>
		<path d="M350.298,0H161.702c-24.776,0-44.93,20.149-44.93,44.912v422.175c0,24.763,20.154,44.912,44.93,44.912h188.597    c24.776,0,44.93-20.149,44.93-44.912V44.912C395.228,20.149,375.075,0,350.298,0z M377.263,467.088    c0,14.86-12.096,26.947-26.965,26.947H161.702c-14.868,0-26.965-12.088-26.965-26.947V44.912c0-14.86,12.096-26.947,26.965-26.947    h188.597c14.868,0,26.965,12.088,26.965,26.947V467.088z" fill="#b0c6d8" data-original="#000000" style="" class=""/>
	</g>
</g>
<g xmlns="http://www.w3.org/2000/svg">
	<g>
		<rect x="224.561" y="53.895" width="62.877" height="17.965" fill="#b0c6d8" data-original="#000000" style="" class=""/>
	</g>
</g>
<g xmlns="http://www.w3.org/2000/svg">
	<g>
		<rect x="242.526" y="26.947" width="26.947" height="17.965" fill="#b0c6d8" data-original="#000000" style="" class=""/>
	</g>
</g>
<g xmlns="http://www.w3.org/2000/svg">
	<g>
		<path d="M256,422.175c-17.333,0-31.439,14.105-31.439,31.439c0,17.333,14.105,31.439,31.439,31.439    c17.333,0,31.439-14.105,31.439-31.439C287.439,436.281,273.333,422.175,256,422.175z M256,467.088    c-7.43,0-13.474-6.044-13.474-13.474c0-7.43,6.044-13.474,13.474-13.474c7.43,0,13.474,6.044,13.474,13.474    C269.474,461.044,263.43,467.088,256,467.088z" fill="#b0c6d8" data-original="#000000" style="" class=""/>
	</g>
</g>
<g xmlns="http://www.w3.org/2000/svg">
</g>
<g xmlns="http://www.w3.org/2000/svg">
</g>
<g xmlns="http://www.w3.org/2000/svg">
</g>
<g xmlns="http://www.w3.org/2000/svg">
</g>
<g xmlns="http://www.w3.org/2000/svg">
</g>
<g xmlns="http://www.w3.org/2000/svg">
</g>
<g xmlns="http://www.w3.org/2000/svg">
</g>
<g xmlns="http://www.w3.org/2000/svg">
</g>
<g xmlns="http://www.w3.org/2000/svg">
</g>
<g xmlns="http://www.w3.org/2000/svg">
</g>
<g xmlns="http://www.w3.org/2000/svg">
</g>
<g xmlns="http://www.w3.org/2000/svg">
</g>
<g xmlns="http://www.w3.org/2000/svg">
</g>
<g xmlns="http://www.w3.org/2000/svg">
</g>
<g xmlns="http://www.w3.org/2000/svg">
</g>
</g></svg>
